<svg width="88" height="88" viewBox="0 0 88 88" fill="none" xmlns="http://www.w3.org/2000/svg">
<path d="M54.2172 63.0495C43.7012 63.542 26.9844 63.0942 19.4447 62.154C12.4507 61.2585 8.03611 57.3636 6.49841 50.8268C6.25039 49.9762 5.85301 49.6179 5.15856 49.6179C3.42266 49.6177 1.38924 48.3645 0.694695 46.8425C0.198669 45.8127 0.000366211 43.4842 0.000358582 39.4548C0.000358582 32.6495 0.496185 31.5746 4.21618 30.321C6.10111 29.6942 6.44866 29.3806 6.94469 27.6345C7.93668 24.4111 8.48238 23.4708 10.4662 21.6354C14.3849 18.1432 17.6594 17.4716 35.2191 16.6657L41.6674 16.3962L41.766 15.0983C41.8652 14.0238 41.5184 13.5759 39.9808 12.7253C35.0701 9.90459 35.3181 3.14427 40.4769 0.816093C45.6357 -1.60159 51.3402 1.6218 51.3402 6.90496C51.3401 9.54649 49.7028 12.0533 47.3715 12.904C46.0818 13.3965 45.8836 13.666 45.9828 14.9196L46.0824 16.3962L52.5306 16.6657C66.221 17.2925 70.1894 17.7847 73.4632 19.2175C77.4314 20.9188 80.1104 24.0082 81.0033 27.9929C81.3505 29.4702 81.6477 29.7839 83.5326 30.3659C87.0544 31.4404 87.6996 32.6491 87.9476 38.5143C88.1956 44.3348 87.6001 46.9766 85.7152 48.5436C85.0208 49.1256 83.8303 49.6178 83.0863 49.6179C81.8958 49.6179 81.6477 49.8418 81.1517 51.6774C79.366 58.0351 74.7033 61.5277 66.9652 62.3337C65.5763 62.468 59.8719 62.7809 54.2172 63.0495ZM22.8666 57.7673C28.8697 58.4388 57.9363 58.4838 64.7318 57.8122C73.0153 57.051 75.1484 55.3046 76.4877 48.4098C77.3309 43.9326 77.1817 33.5452 76.14 29.6052C74.9991 25.0383 72.271 22.8446 67.0131 22.3073C62.8464 21.8596 59.5227 21.8142 58.5306 22.1276C58.0345 22.3071 57.0431 23.6956 56.2992 25.2624C55.5055 26.7846 54.4142 28.2623 53.8685 28.5309C53.2733 28.8443 49.3542 29.0231 43.8978 29.0231C38.443 29.0231 34.525 28.8442 33.9281 28.5309C33.3825 28.2623 32.2911 26.7844 31.4974 25.2175C29.7613 21.7252 29.3145 21.5905 22.5189 22.1725C18.5506 22.5307 17.2611 22.8448 15.5746 23.8298C11.7551 26.1132 10.3664 31.6198 10.8129 42.1413C11.3585 54.409 13.0947 56.6479 22.8666 57.7673ZM66.6166 36.8581C70.9817 41.8279 65.1777 49.5292 58.3324 47.8278C55.9515 47.2457 53.0251 44.4251 52.5785 42.2761C52.0329 39.724 53.2234 37.1268 55.7035 35.4255C59.2749 32.963 63.7396 33.5449 66.6166 36.8581ZM27.5287 48.0065C21.1299 48.0064 17.4594 41.4249 21.3285 36.8581C22.023 36.0074 23.2634 34.978 24.057 34.6198C26.041 33.6798 29.4629 33.769 31.2982 34.7985C38.2427 38.6042 35.5645 48.0065 27.5287 48.0065ZM45.2386 87.8991C38.5919 89.0183 31.7962 80.6903 30.308 69.6764C29.9608 67.0797 30.556 66.4527 33.8295 65.8259C39.9803 64.617 52.2821 64.975 56.0521 66.363C58.1354 67.1689 58.1851 67.7061 56.7963 72.7204C54.7129 80.1527 49.3557 87.2275 45.2386 87.8991ZM70.8841 75.0934C69.3465 75.7202 62.5016 75.7651 61.2113 75.1384C59.9216 74.5116 59.9705 71.7804 61.2601 69.8552C61.8058 69.094 62.4016 68.4225 62.6 68.4225C63.2948 68.4675 69.8916 70.9295 71.0326 71.5563C73.0662 72.7203 73.0166 74.198 70.8841 75.0934ZM26.5873 75.1384C25.2967 75.765 18.3034 75.7202 16.9642 75.0934C13.7405 73.5265 15.0304 71.9143 21.181 69.7653C23.3635 69.049 25.2488 68.4225 25.348 68.4225C25.4483 68.4243 25.9935 69.095 26.5384 69.8552C27.8281 71.7804 27.8769 74.5116 26.5873 75.1384Z" fill="white"/>
</svg>
