<svg width="40" height="40" viewBox="0 0 40 40" fill="none" xmlns="http://www.w3.org/2000/svg">
<rect width="40" height="40" rx="20" transform="matrix(-1 0 0 1 40 0)" fill="#62206E"/>
<path d="M22.7862 25.1951C19.9182 25.3294 15.3591 25.2074 13.3028 24.951C11.3957 24.7067 10.1919 23.6446 9.77254 21.8621C9.70494 21.6302 9.59655 21.5321 9.40731 21.532C8.93385 21.532 8.37896 21.1903 8.18954 20.7752C8.05426 20.4944 8.00009 19.8594 8.00008 18.7606C8.00008 16.9045 8.13586 16.6113 9.15047 16.2694C9.66408 16.0985 9.75843 16.0128 9.89364 15.5369C10.1642 14.6578 10.3135 14.4009 10.8546 13.9002C11.9232 12.9479 12.8168 12.7645 17.6056 12.5447L19.3634 12.4715L19.3907 12.118C19.4178 11.8249 19.3228 11.7025 18.9034 11.4705C17.5645 10.7011 17.6323 8.85738 19.0391 8.22248C20.4461 7.56318 22.002 8.44279 22.002 9.88361C22.0019 10.6039 21.5547 11.2874 20.919 11.5194C20.5676 11.6536 20.5141 11.7274 20.5411 12.0692L20.5675 12.4715L22.3263 12.5447C26.0599 12.7157 27.1424 12.8503 28.0352 13.241C29.1175 13.705 29.8484 14.5478 30.0919 15.6346C30.1866 16.0374 30.2674 16.1233 30.7813 16.282C31.7418 16.5751 31.9178 16.9043 31.9854 18.5037C32.0531 20.0909 31.891 20.8117 31.377 21.2391C31.1878 21.3977 30.8632 21.5318 30.6602 21.532C30.3356 21.532 30.2672 21.5931 30.1319 22.0936C29.6449 23.8275 28.3732 24.78 26.2628 24.9998C25.8834 25.0365 24.328 25.1219 22.7862 25.1951ZM14.2364 23.7547C15.8738 23.9378 23.8011 23.9496 25.6544 23.7664C27.9131 23.5588 28.4952 23.083 28.8604 21.2029C29.0904 19.9819 29.0498 17.1486 28.7657 16.074C28.4546 14.8286 27.7103 14.2304 26.2765 14.0838C25.1401 13.9617 24.2336 13.9495 23.963 14.035C23.8277 14.0838 23.5575 14.4622 23.3546 14.8895C23.1382 15.3045 22.8403 15.7076 22.6915 15.7811C22.5292 15.8665 21.4599 15.9149 19.9718 15.9149C18.4841 15.9149 17.4156 15.8665 17.253 15.7811C17.1042 15.7078 16.8064 15.305 16.5899 14.8778C16.1165 13.9254 15.9948 13.888 14.1417 14.0467C13.0594 14.1444 12.7071 14.2302 12.2472 14.4988C11.2057 15.1217 10.8276 16.6238 10.9493 19.493C11.0981 22.8387 11.5714 23.4494 14.2364 23.7547ZM26.1681 18.0526C27.3581 19.4078 25.7759 21.5073 23.9093 21.0438C23.2601 20.8851 22.462 20.1161 22.3399 19.5301C22.1911 18.8341 22.5151 18.125 23.1915 17.661C24.1655 16.9894 25.3834 17.149 26.1681 18.0526ZM15.5079 21.0926C13.7629 21.0926 12.7618 19.298 13.8165 18.0526C14.0059 17.8206 14.3442 17.5389 14.5606 17.4412C15.1018 17.1848 16.0357 17.2092 16.5362 17.4901C18.4301 18.528 17.6994 21.0926 15.5079 21.0926ZM20.338 31.9725C18.5252 32.2777 16.6716 30.0065 16.2657 27.0028C16.171 26.2945 16.3338 26.1229 17.2266 25.952C18.9043 25.6224 22.2591 25.7209 23.2872 26.0994C23.855 26.3191 23.869 26.4657 23.4903 27.8328C22.9222 29.8597 21.4608 31.7892 20.338 31.9725ZM27.3321 28.4803C26.9127 28.6512 25.0452 28.663 24.6934 28.492C24.3422 28.3207 24.3557 27.5764 24.7071 27.0516C24.8556 26.8444 25.0179 26.6616 25.0724 26.661C25.2617 26.6732 27.0604 27.3443 27.3722 27.5154C27.9268 27.8329 27.9137 28.2361 27.3321 28.4803ZM15.2511 28.492C14.8994 28.6629 12.9931 28.6511 12.627 28.4803C11.7477 28.0529 12.0992 27.6132 13.7765 27.0272C14.3717 26.8318 14.8861 26.661 14.9132 26.661C14.9407 26.6617 15.0889 26.8444 15.2374 27.0516C15.5891 27.5766 15.6028 28.3211 15.2511 28.492Z" fill="white"/>
</svg>
