<svg width="120" height="32" viewBox="0 0 120 32" fill="none" xmlns="http://www.w3.org/2000/svg">
<rect x="0.75" y="0.75" width="30.5" height="30.5" rx="7.25" stroke="#AA74E0" stroke-width="1.5"/>
<path d="M23.2501 11.5C23.4501 11.1 23.1667 8.5 23.0001 7.25C18.0001 7.65 17.7501 14.25 18.2501 17.5C18.5001 17.75 22.0001 19 23.0001 18.25C23.8001 17.65 23.7501 15.3333 23.5001 14.5C23.7501 14.5 24.2501 14 24.2501 13.5C24.2501 13.1 23.5834 12 23.2501 11.5Z" fill="#F3AFAF"/>
<path d="M8.75 10.4999C10.75 2.7499 18.75 1.74978 23.5 7.00002C22.1667 8.66668 19.35 12.5 18.75 14.5C18.6667 15.8333 18.95 18.9 20.75 20.5C23 22.5 24.75 24.25 25.5 26.75C26.1 28.75 25.9167 31.0833 25.75 32H5.25L4.75 30.7499C4.75 29.7499 5.08333 28.3333 5.25 27.75C7.75 23.5 8.75 16.9999 8.75 10.4999Z" fill="#AA74E0"/>
<path d="M14.958 24.3242C15.409 24.0536 15.9343 23.9567 16.4111 24.0166C16.9543 24.085 17.4651 24.3629 17.7129 24.8584C17.9631 25.3591 17.9143 26.0189 17.4756 26.7803C17.0376 27.5401 16.1987 28.4283 14.8105 29.4277C14.7438 29.4758 14.6561 29.4812 14.583 29.4443L14.5537 29.4609C13.1657 28.4616 12.3267 27.5732 11.8887 26.8135C11.4499 26.052 11.401 25.3923 11.6514 24.8916C11.8992 24.3961 12.4098 24.1182 12.9531 24.0498C13.4299 23.99 13.9553 24.0868 14.4062 24.3574L14.5947 24.4844L14.6777 24.5469L14.6807 24.623L14.6816 24.6172C14.684 24.568 14.703 24.5211 14.7344 24.4844L14.7695 24.4512L14.958 24.3242Z" fill="#F3AFAF"/>
<path d="M15.744 17.9854C14.244 16.4854 13.3853 12.9391 13 11.5C13 11.5 13.9501 13.2022 14.4871 14.4714C15.0241 15.7406 15.744 17.9854 15.744 17.9854Z" fill="#D6BCDB"/>
<path d="M18.9307 10C18.9307 10 19.2587 11.9216 19.3416 13.2973L18.798 14.5027C18.6742 12.7995 18.8555 10.9558 18.9307 10Z" fill="#D6BCDB"/>
<path d="M50.3633 9.4125V22.5H47.7383V16.9312H42.132V22.5H39.507V9.4125H42.132V14.7937H47.7383V9.4125H50.3633ZM62.6032 17.0812C62.6032 17.4562 62.5782 17.7937 62.5282 18.0937H54.9344C54.9969 18.8437 55.2594 19.4312 55.7219 19.8562C56.1844 20.2812 56.7532 20.4937 57.4282 20.4937C58.4032 20.4937 59.0969 20.075 59.5094 19.2375H62.3407C62.0407 20.2375 61.4657 21.0625 60.6157 21.7125C59.7657 22.35 58.7219 22.6688 57.4844 22.6688C56.4844 22.6688 55.5844 22.45 54.7844 22.0125C53.9969 21.5625 53.3782 20.9312 52.9282 20.1187C52.4907 19.3062 52.2719 18.3687 52.2719 17.3062C52.2719 16.2312 52.4907 15.2875 52.9282 14.475C53.3657 13.6625 53.9782 13.0375 54.7657 12.6C55.5532 12.1625 56.4594 11.9437 57.4844 11.9437C58.4719 11.9437 59.3532 12.1562 60.1282 12.5812C60.9157 13.0062 61.5219 13.6125 61.9469 14.4C62.3844 15.175 62.6032 16.0687 62.6032 17.0812ZM59.8844 16.3312C59.8719 15.6562 59.6282 15.1187 59.1532 14.7187C58.6782 14.3062 58.0969 14.1 57.4094 14.1C56.7594 14.1 56.2094 14.3 55.7594 14.7C55.3219 15.0875 55.0532 15.6312 54.9532 16.3312H59.8844ZM67.1442 13.725C67.4817 13.175 67.9192 12.7437 68.4567 12.4312C69.0067 12.1187 69.6317 11.9625 70.3317 11.9625V14.7187H69.638C68.813 14.7187 68.188 14.9125 67.763 15.3C67.3505 15.6875 67.1442 16.3625 67.1442 17.325V22.5H64.5192V12.1125H67.1442V13.725Z" fill="#AA74E0"/>
<path d="M76.6748 9.4125C78.0498 9.4125 79.256 9.68125 80.2935 10.2187C81.3435 10.7562 82.1498 11.525 82.7123 12.525C83.2873 13.5125 83.5748 14.6625 83.5748 15.975C83.5748 17.2875 83.2873 18.4375 82.7123 19.425C82.1498 20.4 81.3435 21.1562 80.2935 21.6937C79.256 22.2312 78.0498 22.5 76.6748 22.5H72.0998V9.4125H76.6748ZM76.581 20.2687C77.956 20.2687 79.0185 19.8937 79.7685 19.1437C80.5185 18.3937 80.8935 17.3375 80.8935 15.975C80.8935 14.6125 80.5185 13.55 79.7685 12.7875C79.0185 12.0125 77.956 11.625 76.581 11.625H74.7248V20.2687H76.581ZM95.196 17.0812C95.196 17.4562 95.171 17.7937 95.121 18.0937H87.5272C87.5897 18.8437 87.8522 19.4312 88.3147 19.8562C88.7772 20.2812 89.346 20.4937 90.021 20.4937C90.996 20.4937 91.6897 20.075 92.1022 19.2375H94.9335C94.6335 20.2375 94.0585 21.0625 93.2085 21.7125C92.3585 22.35 91.3147 22.6688 90.0772 22.6688C89.0772 22.6688 88.1772 22.45 87.3772 22.0125C86.5897 21.5625 85.971 20.9312 85.521 20.1187C85.0835 19.3062 84.8647 18.3687 84.8647 17.3062C84.8647 16.2312 85.0835 15.2875 85.521 14.475C85.9585 13.6625 86.571 13.0375 87.3585 12.6C88.146 12.1625 89.0522 11.9437 90.0772 11.9437C91.0647 11.9437 91.946 12.1562 92.721 12.5812C93.5085 13.0062 94.1147 13.6125 94.5397 14.4C94.9772 15.175 95.196 16.0687 95.196 17.0812ZM92.4772 16.3312C92.4647 15.6562 92.221 15.1187 91.746 14.7187C91.271 14.3062 90.6897 14.1 90.0022 14.1C89.3522 14.1 88.8022 14.3 88.3522 14.7C87.9147 15.0875 87.646 15.6312 87.546 16.3312H92.4772ZM106.768 17.0812C106.768 17.4562 106.743 17.7937 106.693 18.0937H99.0995C99.162 18.8437 99.4245 19.4312 99.887 19.8562C100.349 20.2812 100.918 20.4937 101.593 20.4937C102.568 20.4937 103.262 20.075 103.674 19.2375H106.506C106.206 20.2375 105.631 21.0625 104.781 21.7125C103.931 22.35 102.887 22.6688 101.649 22.6688C100.649 22.6688 99.7495 22.45 98.9495 22.0125C98.162 21.5625 97.5432 20.9312 97.0932 20.1187C96.6557 19.3062 96.437 18.3687 96.437 17.3062C96.437 16.2312 96.6557 15.2875 97.0932 14.475C97.5307 13.6625 98.1432 13.0375 98.9307 12.6C99.7182 12.1625 100.624 11.9437 101.649 11.9437C102.637 11.9437 103.518 12.1562 104.293 12.5812C105.081 13.0062 105.687 13.6125 106.112 14.4C106.549 15.175 106.768 16.0687 106.768 17.0812ZM104.049 16.3312C104.037 15.6562 103.793 15.1187 103.318 14.7187C102.843 14.3062 102.262 14.1 101.574 14.1C100.924 14.1 100.374 14.3 99.9245 14.7C99.487 15.0875 99.2182 15.6312 99.1182 16.3312H104.049ZM114.441 11.9625C115.678 11.9625 116.678 12.3562 117.441 13.1437C118.203 13.9187 118.584 15.0062 118.584 16.4062V22.5H115.959V16.7625C115.959 15.9375 115.753 15.3062 115.341 14.8687C114.928 14.4187 114.366 14.1937 113.653 14.1937C112.928 14.1937 112.353 14.4187 111.928 14.8687C111.516 15.3062 111.309 15.9375 111.309 16.7625V22.5H108.684V12.1125H111.309V13.4062C111.659 12.9562 112.103 12.6062 112.641 12.3562C113.191 12.0937 113.791 11.9625 114.441 11.9625Z" fill="#F3AFAF"/>
</svg>
